<?xml version="1.0" encoding="UTF-8" standalone="no"?>
<!-- Created with Inkscape (http://www.inkscape.org/) -->

<svg
   xmlns:dc="http://purl.org/dc/elements/1.1/"
   xmlns:cc="http://creativecommons.org/ns#"
   xmlns:rdf="http://www.w3.org/1999/02/22-rdf-syntax-ns#"
   xmlns:svg="http://www.w3.org/2000/svg"
   xmlns="http://www.w3.org/2000/svg"
   xmlns:sodipodi="http://sodipodi.sourceforge.net/DTD/sodipodi-0.dtd"
   xmlns:inkscape="http://www.inkscape.org/namespaces/inkscape"
   width="165"
   height="165"
   viewBox="0 0 165 165"
   id="svg4337"
   version="1.1"
   inkscape:version="0.48.4 r9939"
   sodipodi:docname="build.svg">
  <defs
     id="defs4339" />
  <sodipodi:namedview
     id="base"
     pagecolor="#ffffff"
     bordercolor="#666666"
     borderopacity="1.0"
     inkscape:pageopacity="0.0"
     inkscape:pageshadow="2"
     inkscape:zoom="1.4"
     inkscape:cx="103.07758"
     inkscape:cy="117.85714"
     inkscape:document-units="px"
     inkscape:current-layer="layer1"
     showgrid="false"
     units="px"
     inkscape:window-width="1145"
     inkscape:window-height="900"
     inkscape:window-x="695"
     inkscape:window-y="69"
     inkscape:window-maximized="0" />
  <metadata
     id="metadata4342">
    <rdf:RDF>
      <cc:Work
         rdf:about="">
        <dc:format>image/svg+xml</dc:format>
        <dc:type
           rdf:resource="http://purl.org/dc/dcmitype/StillImage" />
        <dc:title />
      </cc:Work>
    </rdf:RDF>
  </metadata>
  <g
     inkscape:label="Layer 1"
     inkscape:groupmode="layer"
     id="layer1"
     transform="translate(0,-887.36216)">
    <rect
       style="fill:#3f51b5;fill-opacity:1;stroke:none"
       id="rect4313"
       width="160"
       height="160"
       x="2.8571408"
       y="889.50507"
       ry="18.160233" />
    <g
       style="fill:#f2f2f2"
       id="build_icon"
       class="pattern_icon"
       transform="translate(-497.89286,556.32943)">
      <path
         inkscape:connector-curvature="0"
         d="m 584,394 11,11 -49,55 c -2,2 -6,2 -8,0 l -6,-6 c -3,-3 -3,-7 0,-9 l 52,-51 z m 47,11 -9,9 c -1,1 -4,1 -6,0 l -2,-3 c -1,-1 -2,-3 -1,-4 1,-1 1,-3 -2,-7 -3,-3 -8,-3 -10,-1 l -3,3 -11,-11 1,-2 2,-2 c 4,-3 0,-7 0,-7 -10,-10 -24,-9 -24,-9 l -1,-4 c 29,-7 39,5 43,9 l 8,8 c 2,2 0,7 3,10 2,2 3,3 5,3 1,-2 4,-1 5,0 l 2,2 c 1,1 1,5 0,6 z"
         id="path4164" />
    </g>
  </g>
</svg>
