<?xml version="1.0" encoding="UTF-8" standalone="no"?>
<!-- Created with Inkscape (http://www.inkscape.org/) -->

<svg
   xmlns:dc="http://purl.org/dc/elements/1.1/"
   xmlns:cc="http://creativecommons.org/ns#"
   xmlns:rdf="http://www.w3.org/1999/02/22-rdf-syntax-ns#"
   xmlns:svg="http://www.w3.org/2000/svg"
   xmlns="http://www.w3.org/2000/svg"
   xmlns:sodipodi="http://sodipodi.sourceforge.net/DTD/sodipodi-0.dtd"
   xmlns:inkscape="http://www.inkscape.org/namespaces/inkscape"
   width="165"
   height="165"
   viewBox="0 0 165 165"
   id="svg4337"
   version="1.1"
   inkscape:version="0.48.4 r9939"
   sodipodi:docname="deploy.svg">
  <defs
     id="defs4339" />
  <sodipodi:namedview
     id="base"
     pagecolor="#ffffff"
     bordercolor="#666666"
     borderopacity="1.0"
     inkscape:pageopacity="0.0"
     inkscape:pageshadow="2"
     inkscape:zoom="1.4"
     inkscape:cx="103.07758"
     inkscape:cy="117.85714"
     inkscape:document-units="px"
     inkscape:current-layer="layer1"
     showgrid="false"
     units="px"
     inkscape:window-width="1145"
     inkscape:window-height="900"
     inkscape:window-x="542"
     inkscape:window-y="38"
     inkscape:window-maximized="0" />
  <metadata
     id="metadata4342">
    <rdf:RDF>
      <cc:Work
         rdf:about="">
        <dc:format>image/svg+xml</dc:format>
        <dc:type
           rdf:resource="http://purl.org/dc/dcmitype/StillImage" />
        <dc:title />
      </cc:Work>
    </rdf:RDF>
  </metadata>
  <g
     inkscape:label="Layer 1"
     inkscape:groupmode="layer"
     id="layer1"
     transform="translate(0,-887.36216)">
    <rect
       style="fill:#ffd42a;fill-opacity:1;stroke:none"
       id="rect4222"
       width="160"
       height="160"
       x="2.8571494"
       y="890.2193"
       ry="18.160233" />
    <path
       style="fill:#f2f2f2"
       inkscape:connector-curvature="0"
       id="deploy_icon"
       d="m 124.87306,959.21929 0,-5 c 0,-9 -7,-17.00001 -17,-17.00001 -1,-1 -3,0 -5,0 -1.99999,-9 -10.999991,-14 -20.999991,-14 -9,0 -17,5 -20,16 -2.6,-2 -5.5,-2 -8.3,-2 -15.1,0 -29.5,12.00001 -28.7,29.00002 -0.8,16 13.6,29 28.7,29 l 13.3,-1 0,23 30,0 0,-22 25.999991,0 c 10,-1 18,-8 18,-19 0,-9 -6,-16 -16,-17.00001 z m -34.999991,28.00001 0,22 -14,0 0,-22 -18,0 24,-25 25.999991,25 -17.999991,0 z"
       class="pattern_icon" />
  </g>
</svg>
