<?xml version="1.0" encoding="UTF-8" standalone="no"?>
<!-- Created with Inkscape (http://www.inkscape.org/) -->

<svg
   xmlns:dc="http://purl.org/dc/elements/1.1/"
   xmlns:cc="http://creativecommons.org/ns#"
   xmlns:rdf="http://www.w3.org/1999/02/22-rdf-syntax-ns#"
   xmlns:svg="http://www.w3.org/2000/svg"
   xmlns="http://www.w3.org/2000/svg"
   xmlns:sodipodi="http://sodipodi.sourceforge.net/DTD/sodipodi-0.dtd"
   xmlns:inkscape="http://www.inkscape.org/namespaces/inkscape"
   width="165"
   height="165"
   viewBox="0 0 165 165"
   id="svg4337"
   version="1.1"
   inkscape:version="0.91 r13725"
   sodipodi:docname="operate.svg">
  <defs
     id="defs4339" />
  <sodipodi:namedview
     id="base"
     pagecolor="#ffffff"
     bordercolor="#666666"
     borderopacity="1.0"
     inkscape:pageopacity="0.0"
     inkscape:pageshadow="2"
     inkscape:zoom="1.4"
     inkscape:cx="103.07758"
     inkscape:cy="117.85714"
     inkscape:document-units="px"
     inkscape:current-layer="layer1"
     showgrid="false"
     units="px"
     inkscape:window-width="1145"
     inkscape:window-height="974"
     inkscape:window-x="695"
     inkscape:window-y="69"
     inkscape:window-maximized="0" />
  <metadata
     id="metadata4342">
    <rdf:RDF>
      <cc:Work
         rdf:about="">
        <dc:format>image/svg+xml</dc:format>
        <dc:type
           rdf:resource="http://purl.org/dc/dcmitype/StillImage" />
        <dc:title></dc:title>
      </cc:Work>
    </rdf:RDF>
  </metadata>
  <g
     inkscape:label="Layer 1"
     inkscape:groupmode="layer"
     id="layer1"
     transform="translate(0,-887.36216)">
    <rect
       ry="18.160233"
       y="890.2193"
       x="2.8571429"
       height="160"
       width="160"
       id="rect4292"
       style="opacity:1;fill:#ff9800;fill-opacity:1;stroke:none;stroke-width:1.972;stroke-miterlimit:4;stroke-dasharray:none;stroke-opacity:1" />
    <g
       style="fill:#f2f2f2"
       id="operate_icon"
       class="pattern_icon"
       transform="translate(-89.392857,781.09428)">
      <path
         inkscape:connector-curvature="0"
         d="m 217,170 -8,-8 -17,17 -10,-10 17,-17 -8,-8 -17,17 -11,-11 -8,8 48,48 8,-8 -10,-11 16,-17 z"
         id="path4159" />
      <path
         inkscape:connector-curvature="0"
         d="m 196,207 -42,-41 c -9,10 -19,27 -12,41 l -13,13 c -2,3 -2,8 0,11 l 2,1 c 3,3 8,3 10,0 l 13,-12 c 14,6 31,-4 42,-13 z"
         id="path4161" />
    </g>
  </g>
</svg>
