<?xml version="1.0" encoding="UTF-8" standalone="no"?>
<!-- Created with Inkscape (http://www.inkscape.org/) -->

<svg
   xmlns:dc="http://purl.org/dc/elements/1.1/"
   xmlns:cc="http://creativecommons.org/ns#"
   xmlns:rdf="http://www.w3.org/1999/02/22-rdf-syntax-ns#"
   xmlns:svg="http://www.w3.org/2000/svg"
   xmlns="http://www.w3.org/2000/svg"
   xmlns:sodipodi="http://sodipodi.sourceforge.net/DTD/sodipodi-0.dtd"
   xmlns:inkscape="http://www.inkscape.org/namespaces/inkscape"
   width="165"
   height="165"
   viewBox="0 0 165 165"
   id="svg4337"
   version="1.1"
   inkscape:version="0.91 r13725"
   sodipodi:docname="plan.svg">
  <defs
     id="defs4339" />
  <sodipodi:namedview
     id="base"
     pagecolor="#ffffff"
     bordercolor="#666666"
     borderopacity="1.0"
     inkscape:pageopacity="0.0"
     inkscape:pageshadow="2"
     inkscape:zoom="1.4"
     inkscape:cx="103.07758"
     inkscape:cy="117.85714"
     inkscape:document-units="px"
     inkscape:current-layer="layer1"
     showgrid="false"
     units="px"
     inkscape:window-width="1145"
     inkscape:window-height="974"
     inkscape:window-x="695"
     inkscape:window-y="69"
     inkscape:window-maximized="0" />
  <metadata
     id="metadata4342">
    <rdf:RDF>
      <cc:Work
         rdf:about="">
        <dc:format>image/svg+xml</dc:format>
        <dc:type
           rdf:resource="http://purl.org/dc/dcmitype/StillImage" />
        <dc:title></dc:title>
      </cc:Work>
    </rdf:RDF>
  </metadata>
  <g
     inkscape:label="Layer 1"
     inkscape:groupmode="layer"
     id="layer1"
     transform="translate(0,-887.36216)">
    <rect
       style="opacity:1;fill:#f44336;fill-opacity:1;stroke:none;stroke-width:1.972;stroke-miterlimit:4;stroke-dasharray:none;stroke-opacity:1"
       id="rect4299"
       width="160"
       height="160"
       x="2.1428549"
       y="890.2193"
       ry="18.160233" />
    <path
       style="fill:#f2f2f2"
       inkscape:connector-curvature="0"
       id="plan_icon"
       d="m 102.14286,973.46927 -5.000002,0 0,11 5.000002,0 0,-11 z m -11.000002,0 -6,0 0,11 6,0 0,-11 z m 11.000002,-18 -5.000002,0 0,12 5.000002,0 0,-12 z m 11,18 -5,0 0,11 5,0 0,-11 z m -22.000002,17 -6,0 0,11.00003 6,0 0,-11.00003 z m 17.000002,-63.5 -6,0 0,12.3 6,0 0,-12.3 z m -46.000002,0 -6,0 0,12.3 6,0 0,-12.3 z m 51.000002,28.5 -5,0 0,12 5,0 0,-12 z m -22.000002,0 -6,0 0,12 6,0 0,-12 z m -23,35 -6,0 0,11.00003 6,0 0,-11.00003 z m -12,-17 -5,0 0,11 5,0 0,-11 z m 12,0 -6,0 0,11 6,0 0,-11 z m 45.000002,-40.7 0,11.5 -16.000002,0 0,-11.5 -29,0 0,11.5 -17,0 0,-11.5 -12,0 0,80.70003 86.000002,0 0,-80.70003 -12,0 z m 7,74.70003 -75.000002,0 0,-57.50003 75.000002,0 0,57.50003 z m -64.000002,-17.00003 -5,0 0,11.00003 5,0 0,-11.00003 z m 23,-35 -5,0 0,12 5,0 0,-12 z m 0,35 -5,0 0,11.00003 5,0 0,-11.00003 z m -11,-35 -6,0 0,12 6,0 0,-12 z m 11,18 -5,0 0,11 5,0 0,-11 z m 23.000002,17 -5.000002,0 0,11.00003 5.000002,0 0,-11.00003 z"
       class="pattern_icon" />
  </g>
</svg>
